<?xml version="1.0" encoding="UTF-8"?><svg id="Layer_2" xmlns="http://www.w3.org/2000/svg" xmlns:xlink="http://www.w3.org/1999/xlink" viewBox="0 0 486.58 421.38"><defs><style>.cls-1{fill:none;}.cls-2{fill:url(#linear-gradient-3);}.cls-2,.cls-3,.cls-4,.cls-5,.cls-6{stroke:#1b1b1b;}.cls-2,.cls-3,.cls-4,.cls-5,.cls-6,.cls-7,.cls-8{stroke-width:.5px;}.cls-2,.cls-3,.cls-4,.cls-5,.cls-6,.cls-7,.cls-8,.cls-9{stroke-miterlimit:10;}.cls-3{fill:url(#linear-gradient-2);}.cls-4{fill:url(#linear-gradient-4);}.cls-10{clip-path:url(#clippath);}.cls-11,.cls-6,.cls-8{fill:#ee3924;}.cls-12{fill:#e6e7e8;}.cls-13,.cls-7{fill:#f1f2f2;}.cls-14{fill:#ffce07;}.cls-5{fill:url(#linear-gradient);}.cls-7,.cls-8{stroke:#000;}.cls-9{fill:#1b1b1b;stroke:#ffce07;}</style><clipPath id="clippath"><path class="cls-1" d="m167.15,266.5c17.65-11.83,35.3-23.66,52.96-35.5-22.48,6.07-44.97,12.13-67.45,18.2-6.22-7.42-9.33-11.13-15.55-18.55,32.71-22.51,65.42-45.01,98.13-67.52,6.39,7.62,9.58,11.43,15.97,19.05-20.07,13.08-40.13,26.16-60.2,39.24,24.58-7.69,49.16-15.38,73.75-23.07,6.18,7.37,9.27,11.06,15.44,18.43-20.21,12.91-40.41,25.83-60.62,38.74,24.9-7.31,49.79-14.63,74.69-21.94,6.26,7.47,9.39,11.21,15.65,18.68-42.41,10.93-84.82,21.86-127.23,32.8-6.21-7.43-9.32-11.14-15.54-18.56Z"/></clipPath><linearGradient id="linear-gradient" x1="337.64" y1="2419.71" x2="388.48" y2="2419.71" gradientTransform="translate(0 2454.56) scale(1 -1)" gradientUnits="userSpaceOnUse"><stop offset="0" stop-color="#fff"/><stop offset="0" stop-color="#ee3924"/><stop offset=".28" stop-color="#f2662a"/><stop offset=".57" stop-color="#f68633"/><stop offset=".8" stop-color="#f8983b"/><stop offset=".93" stop-color="#f99f3e"/></linearGradient><linearGradient id="linear-gradient-2" x1="357.54" y1="2389.93" x2="391.65" y2="2389.93" gradientTransform="translate(0 2454.56) scale(1 -1)" gradientUnits="userSpaceOnUse"><stop offset="0" stop-color="#fff"/><stop offset="0" stop-color="#ee3924"/><stop offset=".28" stop-color="#f2662a"/><stop offset=".57" stop-color="#f68633"/><stop offset=".8" stop-color="#f8983b"/><stop offset=".94" stop-color="#f99f3e"/></linearGradient><linearGradient id="linear-gradient-3" x1="360.93" y1="2445.42" x2="360.93" y2="2390.87" gradientTransform="translate(0 2454.56) scale(1 -1)" gradientUnits="userSpaceOnUse"><stop offset="0" stop-color="#fff"/><stop offset="0" stop-color="#ee3924"/><stop offset=".08" stop-color="#f16022"/><stop offset=".18" stop-color="#f47f20"/><stop offset=".28" stop-color="#f6971e"/><stop offset=".39" stop-color="#f9ab1a"/><stop offset=".5" stop-color="#fcbb15"/><stop offset=".63" stop-color="#fdc60f"/><stop offset=".78" stop-color="#fecc09"/><stop offset=".99" stop-color="#ffce07"/></linearGradient><linearGradient id="linear-gradient-4" x1="371.16" y1="2395.96" x2="371.16" y2="2381.25" xlink:href="#linear-gradient-3"/></defs><g id="Layer_1-2"><g id="Layer_1-3"><polygon class="cls-9" points="101.18 420.16 119.78 346.58 12.57 186.16 .52 266.86 101.18 420.16"/><polygon class="cls-9" points="367.62 302.24 379.92 234.25 119.8 346.6 102.09 420.51 367.62 302.24"/><polygon class="cls-9" points="482.44 190.56 379.92 234.25 274.19 78.99 383.11 33.93 486.06 188.62 479.78 246.96 372.03 288.96 482.44 190.56"/><polygon class="cls-9" points="370.67 289.2 379.92 234.25 483.76 189.95 370.67 289.2"/><polygon class="cls-9" points="13.01 185.08 270.94 72.72 379.92 234.25 119.78 346.58 13.01 185.08"/><path class="cls-14" d="m254.13,99.85c2.86-1.71,4.29-2.56,7.15-4.27.86-.51,1.34-1.47.31-2.05.1-.15.15-.22.24-.37,1.42.29,2.12.43,3.54.72.65,1.62-.48,3.12-1.92,3.98,2.26.44,3.4.65,5.66,1.09-.46,1.43-.48,2.63.31,3.32-.11.14-.16.21-.26.34-.46-.29-1.27-.36-1.85-.01-3.37,2.01-5.05,3.02-8.42,5.03-1.63-1.11-3.31-1.49-4.9-1.84.19-.82.26-1.64.24-2.42-.9.54-1.35.8-2.24,1.34-1.19.71-1.87,1.68-1.67,2.6-.25-.06-.38-.09-.63-.15-.28-.91-.27-1.7.14-2.66-1.29.25-3.06-.07-3.95-.73.06-.14.09-.21.14-.35,1.34.13,2.43-.18,4.12-1.19,1.22-.73,1.83-1.09,3.05-1.82-.56-.64-1.32-1.07-2.3-1.2.03-.13.05-.19.09-.31,1.02-.09,2.17.27,3.15.95Zm11.28.3c.04-.53.06-.79.1-1.32-1.1-.22-1.64-.34-2.74-.56-2.63,1.57-3.94,2.35-6.56,3.92.48.91.7,1.96.6,3.11,3.43-2.06,5.16-3.09,8.6-5.15Z"/><path class="cls-14" d="m270.41,107.61c.89-.53.94-1.05.85-1.55-.18-.09-.27-.13-.44-.22.1-.18.16-.27.26-.45,1.49.47,2.23.7,3.72,1.17-.05,1.27-.07,1.9-.12,3.17-.61-.07-.92-.1-1.53-.17-3.25,1.94-4.87,2.91-8.12,4.85-.06.56-.1.84-.16,1.4,1.12.19,1.68.29,2.81.49,2.91-1.74,4.37-2.61,7.28-4.35.06-.56.09-.84.16-1.4,1.36.32,2.04.48,3.4.8-.07,1.32-.1,1.99-.17,3.31-.6-.1-.91-.15-1.51-.25-3.02,1.81-4.54,2.71-7.56,4.52-.86.51-1.34,1.47-.31,2.05-.1.15-.15.22-.24.37-1.42-.29-2.12-.43-3.54-.72-.65-1.63.41-3.04,1.85-3.9-2.24-.36-3.36-.54-5.6-.9.46-1.43.37-2.83-.42-3.51.11-.14.16-.21.26-.34.46.29,1.27.36,1.85.01,2.91-1.77,4.36-2.64,7.28-4.38Z"/><path class="cls-14" d="m281.26,119.54c-.43-.58-.65-.87-1.08-1.44.18-.11.27-.16.44-.26,1.23.79,4.12,1.45,6.62,1.41.67-.01,1-.01,1.66-.02.01.19.02.28.03.47-.2.01-.3.02-.5.03-1.36.11-2.22.36-3.41,1.07-.12.07-.18.11-.3.18.7.94,1.05,1.41,1.75,2.35-.83.18-1.24.27-2.07.45-.52-.7-.78-1.05-1.31-1.75-3.55,2.12-5.32,3.18-8.86,5.3.12.75.22,1.21.19,1.86.35.13.53.2.89.33-.1.18-.16.27-.26.45-1.49-.47-2.23-.7-3.72-1.17-.14-1.85-.42-3.14-.82-4.05.19-.11.28-.17.47-.28.64.48,1.69.22,2.27-.13,3.21-1.93,4.81-2.89,8.01-4.8Z"/><path class="cls-14" d="m298.13,137.6c.19,1.86.42,3.89,1.44,5.85-.17.1-.25.15-.42.25-.55-.31-1.06-.3-2.23.4-3.14,1.87-4.7,2.81-7.84,4.68-1.96-1-2.95-1.5-4.91-2.51.09-1.81-.52-4.09-1.35-5.68.17-.1.25-.15.42-.25.59.36,1.04.27,2.07-.34,3.11-1.86,4.67-2.79,7.78-4.65,2.02.9,3.03,1.35,5.04,2.25Zm-11.77,5.36c.43,1.27.57,2.38.45,3.61,3.7-2.21,5.55-3.32,9.25-5.53-.54-1.1-.75-2.24-.59-3.53-3.65,2.18-5.47,3.27-9.11,5.45Z"/><path class="cls-14" d="m300.92,148.53c.89-.53.94-1.05.85-1.55-.18-.09-.27-.13-.44-.22.1-.18.16-.27.26-.45,1.49.47,2.23.7,3.72,1.17-.05,1.27-.07,1.9-.12,3.17-.61-.07-.92-.1-1.53-.17-3.25,1.94-4.87,2.91-8.12,4.85-.06.56-.09.84-.16,1.4,1.12.19,1.68.29,2.8.48,2.91-1.74,4.37-2.61,7.28-4.35.06-.56.1-.84.16-1.4,1.36.32,2.04.48,3.4.8-.07,1.32-.1,1.99-.17,3.31-.6-.1-.91-.15-1.51-.25-3.02,1.81-4.54,2.71-7.56,4.52-.86.51-1.34,1.47-.31,2.05-.1.15-.15.22-.25.37-1.42-.29-2.12-.43-3.54-.72-.65-1.62.41-3.04,1.85-3.9-2.24-.36-3.36-.54-5.6-.9.46-1.43.37-2.83-.42-3.51.11-.14.16-.21.26-.34.45.29,1.27.36,1.85.01,2.93-1.76,4.39-2.63,7.3-4.37Z"/><path class="cls-14" d="m311.78,160.46c-.43-.58-.65-.87-1.08-1.44.18-.11.27-.16.44-.26,1.23.79,4.12,1.45,6.62,1.41.67-.01,1-.01,1.66-.02.01.19.02.28.03.47-.2.01-.3.02-.49.04-1.36.11-2.22.36-3.41,1.07-.12.07-.18.11-.3.18.7.94,1.05,1.41,1.75,2.35-.83.18-1.24.27-2.07.45-.52-.7-.78-1.05-1.31-1.75-3.55,2.12-5.32,3.18-8.86,5.3.12.75.22,1.21.19,1.86.35.13.53.2.88.33-.1.18-.16.27-.26.45-1.49-.47-2.23-.7-3.72-1.17-.14-1.85-.42-3.14-.82-4.06.19-.11.28-.17.47-.28.64.48,1.69.22,2.27-.13,3.2-1.93,4.81-2.89,8.01-4.8Z"/><path class="cls-14" d="m323.81,176.6c-.43-.58-.65-.87-1.08-1.44.83-.17,1.25-.26,2.08-.43.26.35.39.53.65.88,1.11-.66,1.81-1.87,1.58-2.29.14-.09.22-.13.36-.22,2.01,1.14,4.16,2.25,6.07,2.56.13,1.9.58,3.46,1.36,4.52.4.54.93.97,1.54,1.2-.05.17-.08.25-.13.41-1.43-.18-2.14-.26-3.57-.44-1.31-1.75-1.83-3.64-2.07-5.84-.17-.05-.25-.08-.41-.13-.27.76-1.52,1.88-2.88,2.69.97,1.3,1.45,1.95,2.42,3.25.38.08.57.13.96.21-.15,1.39-.23,2.08-.38,3.47-.7-.09-1.06-.13-1.76-.21-3.17,1.89-4.75,2.84-7.92,4.73.12.75.22,1.21.19,1.86.35.13.53.2.88.33-.1.18-.16.27-.26.45-1.49-.47-2.23-.7-3.72-1.17-.14-1.85-.35-3.15-.75-4.06-1.24-.44-1.86-.66-3.1-1.09-.14-1.85-.42-3.14-.82-4.06.19-.11.28-.17.47-.28.64.48,1.69.22,2.27-.12,3.22-1.91,4.82-2.87,8.02-4.78Zm3.27,4.38c-.57-.76-.85-1.14-1.42-1.91-3.55,2.12-5.32,3.18-8.86,5.3.12.75.22,1.21.19,1.86.92.75,2.06.67,2.67.3,2.87-1.71,4.3-2.57,7.17-4.29.1-.49.15-.75.25-1.26Z"/><path class="cls-14" d="m326.34,197.71c.06.3.11.53.08,1.18.35.13.53.2.88.33-.1.18-.16.27-.26.45-1.49-.47-2.23-.7-3.72-1.17-.14-1.85-.03-2.62-.44-3.54.19-.11.28-.17.47-.28.64.48,1.69.22,2.27-.13,2.61-1.56,3.92-2.34,6.54-3.91.86-.51,1.34-1.47.31-2.05.1-.15.15-.22.24-.37,1.42.29,2.12.43,3.54.72.65,1.63-.09,2.62-1.01,3.37,1.59.27,2.39.4,3.99.67-.46,1.43-.86,2.12-.07,2.8-.11.14-.16.21-.26.34-1.13-.07-1.69-.11-2.82-.18-.59-.84-.76-1.93-.18-2.98-.51-.08-.77-.12-1.28-.21-3.31,2-4.96,2.99-8.28,4.96Z"/><path class="cls-14" d="m344.16,207.76c-2.98-.84-4.47-1.26-7.46-2.1-1.02.61-1.53.91-2.55,1.52.15.69.46,1.74.37,2.8.93.39,1.39.58,2.32.96-.06.2-.09.3-.15.5-2.02-.71-3.03-1.07-5.06-1.79-.14-1.63-.65-3.56-1.18-5.18.16-.09.23-.14.39-.23.78.5,1.86.23,2.46-.13,2.11-1.26,3.16-1.89,5.26-3.14.75-.45.85-1.18.52-1.77.2-.12.3-.18.5-.3,2.26,1.48,4.33,2.37,6.41,3.18-.72,2.26-1.09,3.4-1.83,5.68Zm-6.9-2.44c1.55.42,2.32.63,3.86,1.05.73-1.91,1.1-2.87,1.84-4.79-.19-.1-.28-.15-.46-.25-.45.79-1.05,1.49-1.94,2.02-1.32.79-1.98,1.18-3.3,1.97Z"/><path class="cls-14" d="m348.6,209.47c1.68,1.34,3.45,2.37,5.21,2.96-.08.64-.19,2.16.48,3.07.56.75,1.67.53,2.38.07.09.16.13.24.21.39-1,.6-1.97.58-3.23.44-1.87-.18-2.8-.27-4.66-.46-.03,1.25.3,2.65,1.14,3.79-.14.11-.21.17-.35.28-.9-.24-1.19-.26-1.47-.09-1.58.95-2.38,1.42-3.96,2.37-1.43-1.12-3.31-2.08-5.63-2.67.33-.9.39-2.92-.42-4-.79-1.06-2.12-1.08-2.67-.19-.18-.1-.28-.15-.46-.24.9-1.47,2.92-.59,4.51-.5,1.48.1,2.22.15,3.71.25-.17-.98-.27-2.08-.65-3.08.16-.09.23-.14.39-.23.27.21.85.61,1.27.36,1.67-1.01,2.52-1.52,4.2-2.52Zm-2.27,8.07c-.28-.65-.37-1.3-.37-1.94-2.44-.15-3.66-.23-6.09-.38,1.57,1.19,2.63,3.16,2.11,4.92,1.74-1.05,2.61-1.57,4.35-2.6Zm5.29-1.82c-1.11-1.38-1.36-2.58-.73-4.04-1.89,1.13-2.84,1.7-4.74,2.83.02.26.03.39.04.65,2.17.22,3.26.33,5.43.56Z"/><path class="cls-14" d="m45.45,186.09c1.56,1.25,3.25,2.24,4.97,2.85-.14.55-.41,1.86.18,2.68.49.68,1.64.55,2.39.19.07.14.11.21.18.35-1.07.46-2.05.39-3.31.2-1.87-.26-2.8-.39-4.66-.65-.15,1.08.04,2.31.78,3.34-.15.09-.23.13-.38.22-.89-.26-1.18-.29-1.47-.16-1.69.73-2.54,1.09-4.23,1.82-1.34-1.05-3.14-1.98-5.43-2.62.42-.76.68-2.5-.03-3.48-.69-.96-2.04-1.05-2.67-.32-.18-.1-.27-.14-.44-.24,1.06-1.22,3.01-.35,4.61-.18,1.49.17,2.23.25,3.72.42-.07-.86-.06-1.81-.35-2.69.17-.07.25-.11.41-.18.26.2.8.57,1.25.38,1.78-.77,2.68-1.16,4.48-1.93Zm-3.09,6.84c-.22-.58-.25-1.15-.18-1.7-2.45-.27-3.67-.4-6.11-.67,1.46,1.11,2.35,2.88,1.64,4.37,1.86-.8,2.79-1.2,4.65-2Zm5.52-1.28c-.99-1.26-1.12-2.3-.34-3.53-2.03.87-3.04,1.31-5.06,2.18-.01.22-.01.34-.02.56,2.17.32,3.25.48,5.42.79Z"/><path class="cls-14" d="m53.02,196.94c-.38-.52-.57-.78-.94-1.31.19-.08.28-.12.47-.2,1.16.75,4.02,1.48,6.54,1.59.67.03,1.01.04,1.68.07-.01.16-.01.24-.02.41h-.5c-1.39.01-2.27.18-3.55.73-.13.06-.2.08-.33.14.61.85.92,1.27,1.53,2.12-.85.11-1.28.17-2.13.28-.46-.64-.69-.95-1.15-1.59-3.79,1.63-5.68,2.45-9.47,4.08.05.65.1,1.06,0,1.62.34.13.52.2.86.33-.12.15-.19.23-.31.38-1.45-.49-2.18-.73-3.64-1.22.04-1.61-.11-2.74-.43-3.55.2-.09.3-.13.5-.22.59.45,1.68.29,2.3.02,3.45-1.47,5.17-2.2,8.59-3.68Z"/><path class="cls-14" d="m62.3,205.5c-.18,1.15.08,2.26.78,3.83.98.56,1.68.72,2.38.87-.01.15-.02.23-.03.38-1.29-.18-2.91-.37-4.59.36-2.51,1.08-3.77,1.62-6.28,2.7-1.48.64-1.87,1.17-1.82,1.73.5.2.75.3,1.25.5-.12.15-.19.23-.31.38-1.6-.55-2.41-.82-4.01-1.36-.15-.85.54-2.31,1.58-2.76-1.75-.45-2.62-.67-4.37-1.11-.24-1.3-.08-2.9,2.29-3.92,2.25-.97,4.48-.31,6.3.44.61-1.52,1.75-2.74,3.33-3.82,1.39,1.22,2.48,1.6,3.5,1.78Zm-6.14,4.51c1.37-.59,2.06-.89,3.43-1.48-.45-1.43-.89-2.89-.9-4.14-2.19,1.52-3.32,3.6-2.53,5.62Zm-.56.24c-.45-.94-.39-1.45-.25-2.34-1.05.05-2.02.32-2.88.69-2.07.89-2.78,1.75-2.8,2.68.89.23,1.34.34,2.23.57,1.48-.65,2.22-.96,3.7-1.6Z"/><path class="cls-14" d="m58.02,221.61c.03.26.06.46-.04,1.03.34.13.52.2.86.33-.12.15-.19.23-.31.38-1.45-.49-2.18-.73-3.64-1.22.04-1.61.22-2.27-.09-3.08.2-.09.3-.13.5-.22.6.45,1.68.29,2.3.02,2.79-1.2,4.19-1.81,6.99-3.01.92-.4,1.5-1.2.52-1.75.11-.12.17-.18.28-.31,1.4.33,2.1.49,3.5.82.5,1.44-.35,2.26-1.36,2.85,1.58.32,2.37.48,3.96.8-.6,1.21-1.08,1.78-.35,2.42-.12.11-.18.17-.3.28-1.13-.13-1.7-.19-2.83-.31-.51-.76-.58-1.71.11-2.59-.51-.1-.76-.15-1.27-.25-3.52,1.52-5.29,2.28-8.83,3.81Z"/><path class="cls-14" d="m72.86,224.43c-.38-.52-.57-.78-.94-1.31.19-.08.28-.12.47-.2,1.17.75,4.02,1.48,6.54,1.59.67.03,1.01.04,1.68.07,0,.16,0,.24-.02.41h-.5c-1.39.02-2.27.18-3.55.73-.13.06-.2.08-.33.14.61.85.92,1.28,1.53,2.13-.85.11-1.28.16-2.13.27-.46-.64-.69-.95-1.15-1.59-3.79,1.63-5.68,2.45-9.47,4.08.05.65.1,1.06.01,1.62.34.13.52.2.86.33-.12.15-.19.23-.31.38-1.45-.49-2.18-.73-3.64-1.22.04-1.61-.11-2.74-.43-3.55.2-.09.3-.13.5-.22.6.45,1.68.29,2.3.02,3.45-1.47,5.16-2.21,8.58-3.68Z"/><path class="cls-14" d="m80.23,249.48c-1.6.69-2.12,1.25-1.12,1.95-.16.1-.24.16-.39.26-1.44-.6-2.17-.9-3.61-1.51.34-1.52,1.72-2.18,3.32-2.87,2.92-1.26,4.39-1.89,7.31-3.15.08-.45.12-.68.2-1.13-1.07-.26-1.61-.39-2.68-.65-3.07,1.32-4.6,1.98-7.67,3.3l-.3,1.2c-1.34-.35-2.01-.53-3.35-.88.2-1.14.3-1.71.5-2.85.6.12.9.18,1.5.3,3.23-1.39,4.85-2.09,8.08-3.48.92-.4,1.5-1.2.52-1.76.11-.12.17-.18.28-.3,1.4.33,2.1.49,3.5.82.49,1.44-.79,2.67-2.33,3.33,2.24.5,3.36.76,5.6,1.26-.6,1.21-.74,2.25,0,2.88-.12.11-.18.17-.3.28-.43-.27-1.25-.38-1.87-.11-2.86,1.25-4.3,1.87-7.18,3.11Z"/><path class="cls-14" d="m94.03,257.62c-2.93-.89-4.39-1.34-7.32-2.24-1.09.47-1.63.7-2.72,1.17.09.61.29,1.53.09,2.44.9.38,1.35.58,2.25.96-.08.17-.12.25-.2.42-1.97-.73-2.96-1.1-4.93-1.83.02-1.42-.31-3.11-.68-4.54.17-.07.25-.11.41-.18.73.48,1.85.3,2.5.02,2.25-.97,3.37-1.45,5.62-2.42.8-.34.97-.97.7-1.5.21-.09.32-.14.53-.23,2.14,1.4,4.14,2.29,6.16,3.1-.96,1.94-1.44,2.91-2.41,4.83Zm-6.73-2.49c1.52.45,2.28.67,3.8,1.12.93-1.61,1.4-2.42,2.33-4.03-.18-.09-.27-.14-.44-.24-.53.66-1.21,1.23-2.16,1.63-1.42.61-2.12.91-3.53,1.52Z"/><path class="cls-14" d="m99.36,262.58c2.12.63,3.17.95,5.29,1.58-.06,1.1-.78,2.2-2.05,2.91,1.53.56,3.73,1.24,5.24,1.51-.51,2.15-2.39,3.63-4.93,4.73-4.38,1.89-7.13.44-11.99-.75-.23-1.4-.29-2.45.65-3.34-1.56-.46-2.33-.68-3.89-1.14.48-1.37.37-2.98-.26-4.39.15-.09.23-.14.38-.23.46.26,1.23.63,2.03.29,2.81-1.21,4.21-1.81,7.02-3.02.65-.28.99-.83,1.09-1.39-.34-.11-.51-.16-.86-.27.05-.18.08-.27.14-.46,1.68.43,2.51.64,4.19,1.07-.06,1.09-.78,2.2-2.05,2.9Zm-7.41,6.19c3.26-1.43,4.88-2.14,8.14-3.57.65-.28.99-.95,1.08-1.51-.95-.35-1.43-.52-2.38-.87-3.11,1.34-4.67,2.01-7.79,3.35.13.61.18,1.48-.04,2.25.4.15.6.22.99.35Zm2.29,1.89c-.45.77-.49,1.53-.04,2.25,1.45.23,3.8-.44,6.11-1.44,2.37-1.02,3.8-2.16,3.94-3.35-.92-.31-1.39-.47-2.31-.78-3.08,1.33-4.62,2-7.7,3.32Z"/><path class="cls-14" d="m119.28,284.16c0,1.62.04,3.38.87,5.13-.18.08-.27.11-.44.19-.52-.29-1.04-.32-2.29.22-3.35,1.44-5.03,2.17-8.38,3.61-1.88-.98-2.83-1.46-4.71-2.44.27-1.56-.12-3.56-.8-4.98.18-.08.27-.11.44-.19.56.34,1.03.29,2.12-.18,3.33-1.43,4.99-2.15,8.32-3.58,1.95.88,2.92,1.33,4.87,2.22Zm-12.42,3.97c.31,1.12.34,2.09.1,3.14,3.96-1.7,5.93-2.56,9.89-4.26-.43-.98-.53-1.97-.24-3.08-3.91,1.68-5.86,2.52-9.75,4.2Z"/><path class="cls-14" d="m119.15,303.38c-1.6.69-2.12,1.25-1.12,1.95-.16.1-.24.16-.39.26-1.44-.6-2.17-.9-3.61-1.51.34-1.52,1.72-2.18,3.32-2.87,2.93-1.26,4.39-1.89,7.31-3.15.08-.45.12-.68.2-1.13-1.07-.26-1.61-.39-2.68-.65-3.07,1.32-4.6,1.98-7.67,3.3-.12.48-.18.72-.3,1.2-1.34-.35-2.01-.53-3.35-.88.2-1.14.3-1.71.5-2.85.6.12.9.18,1.5.3,3.23-1.39,4.85-2.09,8.08-3.48.92-.4,1.5-1.2.52-1.76.11-.12.17-.18.28-.3,1.4.33,2.1.49,3.5.82.5,1.44-.79,2.67-2.33,3.33,2.24.5,3.36.76,5.61,1.26-.6,1.21-.74,2.25,0,2.88-.12.11-.18.17-.3.28-.43-.27-1.25-.38-1.87-.11-2.88,1.25-4.32,1.87-7.19,3.11Z"/><path class="cls-14" d="m132.94,311.52c-2.93-.89-4.39-1.34-7.32-2.24-1.09.47-1.63.7-2.72,1.17.09.61.29,1.53.09,2.44.9.38,1.35.58,2.25.96-.08.17-.12.25-.2.42-1.97-.73-2.96-1.1-4.93-1.83.02-1.42-.31-3.11-.68-4.54.17-.07.25-.11.41-.18.73.48,1.85.31,2.5.02,2.25-.97,3.38-1.45,5.63-2.42.8-.34.97-.97.7-1.5.21-.09.32-.14.53-.23,2.14,1.4,4.14,2.29,6.16,3.1-.96,1.95-1.45,2.91-2.42,4.83Zm-6.73-2.49c1.52.45,2.28.67,3.8,1.12.93-1.61,1.4-2.42,2.33-4.03-.18-.09-.27-.14-.44-.24-.53.66-1.21,1.23-2.16,1.63-1.41.61-2.12.91-3.53,1.52Z"/><path class="cls-14" d="m137.25,313.25c1.56,1.25,3.25,2.24,4.97,2.85-.14.55-.41,1.86.18,2.68.49.68,1.64.55,2.39.19.07.14.11.21.18.35-1.07.46-2.05.39-3.31.2-1.87-.26-2.8-.39-4.66-.65-.15,1.08.04,2.31.78,3.34-.15.09-.23.13-.38.22-.89-.26-1.18-.29-1.47-.16-1.69.73-2.54,1.09-4.23,1.82-1.34-1.05-3.14-1.98-5.43-2.62.42-.76.68-2.5-.03-3.48-.69-.96-2.04-1.05-2.67-.32-.18-.1-.27-.14-.44-.24,1.06-1.22,3.01-.35,4.61-.18,1.49.17,2.23.25,3.72.42-.07-.86-.06-1.81-.35-2.69.17-.07.25-.11.41-.18.26.2.8.57,1.25.38,1.78-.77,2.68-1.16,4.48-1.93Zm-3.09,6.84c-.22-.58-.25-1.15-.18-1.7-2.45-.27-3.67-.4-6.11-.67,1.46,1.11,2.35,2.88,1.64,4.37,1.86-.8,2.79-1.2,4.65-2Zm5.52-1.28c-.99-1.26-1.12-2.3-.34-3.53-2.02.87-3.04,1.31-5.06,2.18,0,.22,0,.34-.02.56,2.17.32,3.25.48,5.42.79Z"/><polyline class="cls-13" points="354.61 86.33 298.61 110.19 292.89 101.92 349.2 78.7"/><polyline class="cls-13" points="366.06 101.6 309.43 126.1 303.71 118.15 360.34 93.97"/><polyline class="cls-13" points="376.24 119.1 320.57 142.96 314.52 134.69 368.61 111.47"/><polyline class="cls-13" points="396.68 152.2 343.19 175.1 337.18 167.22 390.86 144.69"/><polyline class="cls-13" points="407.19 169.09 354.64 191.62 349 183.36 401.56 161.77"/><polyline class="cls-13" points="416.95 184.67 364.96 207.2 359.33 198.94 411.32 177.17"/><polyline class="cls-13" points="386.43 135.33 332.02 158.87 325.98 150.28 381.02 128.01"/><polyline class="cls-7" points="328.49 46.73 280.4 9.42 284.84 .39 337.32 41.71"/><path class="cls-14" d="m201.58,364.36c-.47-.31-1.11-.6-1.79-.93.26-.78.24-1.54-.05-3.2-.22-1.29-.32-1.93-.54-3.21-.32-.04-1.23,0-1.61.18.41,2.39.62,3.58,1.04,5.97.17.06.55.26.8.3v.02c-.48.93-.73,1.39-1.21,2.31-.5-.3-1.39-.65-1.87-.8.36-.54.41-1.21.21-2.37-.29-1.65-.43-2.47-.71-4.11-.42-.2-.8-.32-1.12-.38.43-.94.69-1.49,1.04-2.47.37.26,1.22.73,1.69.93.32-.53.73-1.46.97-2,.67.16,2.08.34,2.72.4-.09.36-.12,1.03.07,2.11.31,1.76.46,2.65.76,4.41.34.14.64.28.97.41v.02c-.39.61-.94,1.6-1.37,2.41Z"/><path class="cls-14" d="m205.12,358.25c.04.25.12.81.17,1.1.85.12,1.73.11,2.75.07,0,.02,0,.03.01.04-.3.68-.87,1.98-1.05,2.54-1.13-.31-2.31-.54-3.5-.6.07-.67-.07-1.61-.43-3.69-.27-1.56-.51-2.36-.77-2.82.79-.76,1.98-2.27,2.83-3.56.54.71,1.69,2.15,2.38,2.87-.79,1.29-2,3.29-2.39,4.05Zm-.75-4.5s-.02.04-.04.06c.26,1.44.38,2.16.64,3.6.42-.67.63-1,1.04-1.67-.5-.66-1.26-1.62-1.64-1.99Z"/><path class="cls-14" d="m216.75,349.01c.28,1.76.42,2.64.69,4.39.09.6.31.91.44,1.03-1.04,1.28-2.29,3.05-2.88,3.97-.6-.14-1.37-.3-1.97-.35-.49.65-.99,1.37-1.28,1.8-.76-.18-2.02-.37-2.65-.39-.01-.03-.01-.05-.01-.08.19-.31.3-.86.17-1.6,0,0-.7-4.01-.87-4.93-.42-.11-.63-.17-1.05-.28,0-.02,0-.03-.01-.04.25-.54.75-2.06.88-2.44.49.26,1.31.57,1.91.76.19,1.17.58,3.24.78,4.38.17.97-.14,1.7-.33,2.19.01.01.01.02.02.03.58-.08,1.63-.09,2.26.04-.47-2.62-.7-3.93-1.17-6.55-.23-.12-.33-.19-.57-.27.35-.9.52-1.35.87-2.25.65.27.97.41,1.62.68-.09.2-.16.78-.06,1.32.29,1.75.44,2.63.73,4.38.05.3.18.96.25,1.25.48-.03.97-.02,1.44.02.01-.01.02-.01.03-.01l-1.1-6.55c-.19-.08-.34-.19-.58-.26.35-.9.52-1.35.87-2.25.66.27.98.41,1.64.68-.08.2-.16.71-.07,1.33Z"/><path class="cls-14" d="m220.23,348.93c.07.38.14.73.36,1.48-.3.53-.46.79-.76,1.32-.05-.02-.08-.03-.13-.06-.04-.64-.19-1.62-.29-2.15-.3-1.71-1.31-4.14-1.88-5.32.58-.85,1.5-2.24,2.03-3.29.04.02.06.03.1.05.1,2.05.28,6.28.57,7.97Zm.66,6.98c-.44-.37-1.05-.74-1.37-.89.25-.43.71-1.41.93-2.03.29.28.98.75,1.38.95-.32.58-.72,1.44-.94,1.97Z"/><path class="cls-14" d="m233.31,341.61c.28,1.76.42,2.64.69,4.39.09.6.31.91.44,1.03-1.04,1.28-2.29,3.05-2.88,3.97-.6-.14-1.37-.3-1.97-.35-.49.65-.99,1.37-1.28,1.8-.76-.18-2.02-.37-2.65-.39-.01-.03-.01-.05-.01-.08.19-.31.3-.86.17-1.6,0,0-.7-4.01-.87-4.93-.42-.11-.63-.17-1.05-.28,0-.02,0-.03-.01-.04.25-.54.75-2.06.88-2.44.49.26,1.31.57,1.91.76.19,1.17.58,3.24.78,4.38.17.97-.14,1.7-.33,2.19.01.01.01.02.02.03.58-.08,1.63-.09,2.26.04-.47-2.62-.7-3.93-1.17-6.55-.23-.12-.33-.19-.57-.27.35-.9.52-1.35.87-2.25.65.27.97.41,1.62.68-.09.2-.16.78-.06,1.32.29,1.75.44,2.63.73,4.38.05.3.18.96.25,1.25.48-.03.97-.02,1.44.02.01-.01.02-.01.03-.01l-1.1-6.55c-.19-.08-.34-.19-.58-.26.35-.9.52-1.35.87-2.25.66.27.98.41,1.64.68-.07.19-.16.71-.07,1.33Z"/><path class="cls-14" d="m237.61,348.32c-.64-.4-1.57-.85-2.03-1.02.33-.69.34-1.45.22-2.21-.27-1.7-.41-2.54-.68-4.24-.36-.18-.55-.3-.96-.36.27-.55.77-1.64,1.11-2.5.65.33,1.35.6,1.83.75-.16.57-.11,1.25-.01,1.87.32,1.94.48,2.91.81,4.84.31.11.58.22.9.3,0,.02,0,.03.01.04-.3.61-.9,1.83-1.2,2.53Zm-2.05-11.81c-.43.24-.84.44-1.2.69-.02-.03-.03-.04-.05-.07.35-1,.71-1.89,1.09-2.8.52-.41,1.05-.74,1.66-1.13.01.04.02.06.03.1-.65,1.09-1.17,2.28-1.53,3.21Z"/><path class="cls-14" d="m241.99,338.1c-.47.07-.86.23-1.34.44.19,1.19.67,3.77.88,4.97.68.04,1.29-.03,2.16-.15,0,.03.01.04.01.06-.46,1.06-.69,1.59-1.15,2.65-1.01-.21-1.82-.3-2.8-.29.13-.56.05-1.13-.07-1.81-.34-1.8-.51-2.7-.85-4.51-.33.17-.5.25-.83.42-.02-.01-.02-.02-.04-.03.2-.75.39-1.36.57-2.1-.04-.25-.07-.38-.11-.63-.08-.49-.27-.86-.46-1.05,0-.02,0-.03-.01-.04.48-.64,1.4-2.03,1.99-3.07.02.01.03.01.06.02-.08.85-.03,2.04.3,3.75.69-.31,1.3-.6,2.07-1.02-.15.96-.23,1.44-.38,2.39Z"/><path class="cls-14" d="m249.22,343.07c-.71-.4-1.06-.6-1.77-1.01.25-.54.29-1.11.13-2.06,0,0-.54-3.4-.73-4.31-.5-.09-1.21-.17-1.67.04.41,2.4.61,3.6,1.02,6,.21.11.46.25.8.32v.02c-.44.99-.66,1.48-1.1,2.47-.72-.36-1.02-.5-1.74-.72.23-.47.26-1.09.11-1.96-.49-2.77-.74-4.16-1.24-6.93-.19-1.08-.53-1.74-.83-2.01.7-.86,1.65-2.28,2.09-3.12.02.01.02.02.04.03.02.61.02,1.24.25,2.55.21,1.23.32,1.85.53,3.08.4-.87.6-1.3.99-2.17.78.2,1.69.36,2.69.43-.11.55-.11,1.05.06,2.04,0,0,.65,3.94.75,4.42.28.1.58.24,1.04.4v.02c-.37.66-.85,1.46-1.42,2.47Z"/><path class="cls-14" d="m282.45,328.22c-2.73-1.46-4.09-2.18-6.81-3.64-1.74,3.51-2.61,5.26-4.35,8.76-3.51-.48-10.7-1.22-13.59-1.09-.03-.18-.05-.27-.08-.44,1.95-2.51,3.8-7.15,3.07-11.33-1.14-6.58-6.69-11.33-7.47-15.82-.61-3.54.5-7.59,5.48-12.13.26.16.38.24.64.4-1.48,2.23-1.8,3.67-1.46,5.63.55,3.16,6.44,6.87,7.35,12.13.9,5.19-.13,8.85-2.81,13.73,0,.03.01.04.01.06,2.31-.15,9.73.7,11.34,1,.5-.96.75-1.44,1.25-2.4-1.75-9.85-2.63-14.78-4.38-24.64-1.15-.65-2.83-1.05-3.58-1.19-.01-.08-.02-.11-.03-.19.64-1.72,2.4-6.8,3.04-9.13,1.95.76,6.09,2.19,8.52,2.67.01.08.02.11.03.19-1.22,1.98-1.67,4.16-1.22,6.75,1.4,8.18,2.1,12.28,3.5,20.46.99.31,2.33.87,4.7,1.04-1.27,3.67-1.89,5.51-3.15,9.18Z"/><path class="cls-14" d="m310.53,315.81c-2.53-1.12-4.91-1.96-7.06-2.64-.01-.05-.01-.08-.02-.13.53-1.12.86-3.11.49-5.26-.44-2.56-.67-3.83-1.11-6.39-2.8,1.25-4.19,1.87-6.99,3.12,2.31,11.64-1.51,22.07-7.69,31.73-.79-.14-1.19-.21-1.98-.34-.01-.08-.02-.11-.03-.19,6.36-9.08,4.58-20.29,3.12-30.24-.7-4.77-1.69-6.47-2.48-7.69-.01-.05-.01-.08-.02-.13,2.63-3.7,5.29-7.82,7.58-11.43-2.55-.02-5.08.09-6.04.52-1.93.86-2.13,1.5-3.41,3.71-.32-.16-.48-.24-.8-.39,1.15-2.63,3.21-7.57,4.77-11.41,6.97-1.75,14.02.28,18.71,1.25,0,.03.01.04.01.06-.65,1.93-.93,4.23-.32,7.71,1.31,7.57,1.97,11.35,3.28,18.92,1.22.22,1.83.33,3.06.54-1.23,3.47-1.84,5.21-3.07,8.68Zm-10.22-28.98c-.88-.29-2.84-.5-4.93-.59-1.73,2.61-1.64,6.12-1.02,9.66.21,1.19.31,1.78.52,2.97,2.8-1.25,4.19-1.87,6.99-3.12-.63-3.57-.94-5.36-1.56-8.92Z"/><path class="cls-14" d="m348.09,292.75c-1.07,2.52-2.19,5.07-3.25,7.59-2.84-.78-7.78-1.43-11.5-1,0,0-2.19,5.07-3.25,7.59-3.51-1.09-8.53-1.85-15.05-.23-.03-.18-.05-.27-.08-.44,2.34-3.3,3.77-7.89,3.17-11.37-1.24-7.15-6.64-11.01-7.48-15.88-.64-3.67.3-7.23,5.43-12.11.26.16.38.24.64.4-1.37,1.98-1.79,3.46-1.42,5.61.29,1.65,1.2,2.74,3.49,5.12,2.73-5.96,4.09-8.95,6.82-14.91,3.57,1.13,6.51,2.82,8.83,6.28,2.37-5.15,3.55-7.72,5.92-12.87,6.19,2.14,10.76,5.15,12.7,16.28.91,5.37-1.11,10.78-4.97,19.94Zm-25.01-21.08c-1.18,2.5-2.12,4.84-3.38,7.44,1.24,1.76,2.57,3.76,2.97,6.04,1.05,6.07-.63,9.83-2.85,13.55.01.05.01.08.02.13,3.37-.96,9.31-.82,12.57-.3.94-2.4,1.52-6.2.4-12.66-1.79-10.32-5.64-13.37-9.73-14.2Zm14.75-6.59c-.69,1.4-1.56,3.29-2.61,5.6,1.31,2.48,2.5,5.15,3.23,9.33.58,3.35-.03,7.31-2.11,11.79,0,.03.01.04.01.06,3.35-.47,8.05-.32,10.77.1.94-2.4,1.58-6.16.46-12.62-1.85-10.63-5.66-13.43-9.75-14.26Z"/><path class="cls-11" d="m364.65,100.03s13.05-4.42,12.94-6.79l-.13-2.79c.57-9.45-8.73-10.42-12.87-.64l-3.69,5.1,3.75,5.12Z"/><path class="cls-11" d="m373.43,117.87s13.05-4.42,12.94-6.79l-.13-2.79c.57-9.45-8.73-10.42-12.87-.64l-3.69,5.1,3.75,5.12Z"/><path class="cls-11" d="m384.99,134.26s13.05-4.42,12.94-6.79l-.13-2.79c.57-9.45-8.73-10.42-12.87-.64l-3.69,5.1,3.75,5.12Z"/><path class="cls-11" d="m395.37,150.93s13.05-4.42,12.94-6.79l-.13-2.79c.57-9.45-8.73-10.42-12.87-.64l-3.69,5.1,3.75,5.12Z"/><path class="cls-11" d="m405.91,168.05s13.05-4.42,12.94-6.79l-.13-2.79c.57-9.45-8.73-10.42-12.87-.64l-3.69,5.1,3.75,5.12Z"/><path class="cls-11" d="m415.71,183.41s13.05-4.42,12.94-6.79l-.13-2.79c.57-9.45-8.73-10.42-12.87-.64l-3.69,5.1,3.75,5.12Z"/><path id="SVGID" class="cls-11" d="m167.15,266.5c17.65-11.83,35.3-23.66,52.96-35.5-22.48,6.07-44.97,12.13-67.45,18.2-6.22-7.42-9.33-11.13-15.55-18.55,32.71-22.51,65.42-45.01,98.13-67.52,6.39,7.62,9.58,11.43,15.97,19.05-20.07,13.08-40.13,26.16-60.2,39.24,24.58-7.69,49.16-15.38,73.75-23.07,6.18,7.37,9.27,11.06,15.44,18.43-20.21,12.91-40.41,25.83-60.62,38.74,24.9-7.31,49.79-14.63,74.69-21.94,6.26,7.47,9.39,11.21,15.65,18.68-42.41,10.93-84.82,21.86-127.23,32.8-6.21-7.43-9.32-11.14-15.54-18.56Z"/><g class="cls-10"><path class="cls-12" d="m248.13,235.92c8.26-4.54,10.93-10,3.63-18.7-6.25-7.46-13.2-9.27-18.25-7.02-5.71,2.55-4.81,8.35-1.77,15.52,3.72,8.77,8.44,18.73,9.96,28.44,1.8,11.49-7.12,20.12-16.85,24.17-23.17,9.64-48.77,1.37-63.49-17.81-13.85-18.05-20.68-42.37,6.16-54.2,6.43,7.67,12.85,15.34,19.28,23-8.56,3.82-10.41,11.69-2.47,21.17,5.34,6.37,12.49,10.23,19.74,7,5.71-2.55,4.99-6.78,1.63-14.61-3.7-8.62-7.67-17.52-9.01-26.94-1.52-12.27,6.67-21.95,17.3-26.5,23.23-9.96,45.72,1.87,59.67,18.66,14.22,17.11,16.91,37.26-7.83,48.97-7.07-8.46-10.61-12.69-17.7-21.15Z"/></g><path class="cls-12" d="m121.5,147.73c5.67-2.53,8.51-3.79,14.18-6.32,8.28,9.88,16.55,19.75,24.83,29.63,11.59,12.04-2.33,21.53-11.61,26.61-11.46,6.28-27.39,5.78-36.73-4.69-8.35-9.96-16.7-19.93-25.05-29.89,5.64-2.51,8.46-3.77,14.09-6.28,8.07,9.63,16.15,19.27,24.22,28.9,4.14,4.94,9.94,6.42,16.4,3.54,7.09-3.16,8.29-7.32,4.05-12.39-8.12-9.71-16.25-19.41-24.38-29.11Z"/><path class="cls-12" d="m158.02,162.02c-10.46-12.99-6.85-30.04,9.04-36.59,16.16-6.66,36.99-1.73,48.84,11.05,12.25,13.21,5,29.06-9.72,35.63-16.28,7.26-36.7,4.14-48.16-10.09Zm44.24-19.46c-6.64-8.19-17.52-12.72-27.64-8.11-9.68,4.4-10.66,11.91-2.79,21.68,6.55,8.14,17.25,11.74,27.01,7.22,8-3.7,11.34-11.01,3.42-20.79Z"/><path class="cls-5" d="m358.11,68.68c-.89,0-1.86-.15-2.96-.45-.85-.24-1.37-.33-1.65-.38-.08-.01-.16-.01-.23,0-.35.05-.7.08-1.04.08-1.72,0-3.33-.66-4.52-1.85l-2.69-2.7c-.07-.07-.14-.12-.22-.16-1.88-.96-5.11-3.13-6.51-7.25-1.46-4.3-.48-9.14,2.93-14.4.01-.02.02-.03.03-.05.45-.82.94-1.75,1.31-2.47h0l1.3-2.52s.06-.11.1-.15l1.17-1.46c.17-.22.44-.35.72-.35h4.91c.4,0,.75.25.87.63l.3.9c.05-.34.11-.71.16-1.1l1.94-14.79c.12-.93,1.39-1.1,1.76-.24l4.05,9.48c.36.84,1.59.71,1.75-.19.53-2.95.92-6.53,1.23-9.48,1.04-9.8,1.68-15.72,6.84-17.04l6.56-1.67c.67-.17,1.28.43,1.12,1.11l-1.58,6.58s-1.09,4.97.8,9.56c.28.67,1.08.96,1.73.64h0c.54-.26,1.18-.11,1.55.36,2.93,3.68,5.67,8.62,3.76,12.72-.2.43-.42,1.01-.71,1.74-.69,1.78-1.61,4.18-3.42,7.61-.38.72.3,1.54,1.07,1.31l6.75-1.99c.79-.23,1.46.6,1.07,1.32l-4.76,8.68c-.37.67-3.87,6.64-13.09,9.09-2.69.72-4.43,1.28-5.55,1.7-.36.14-.6.49-.57.88.06,1.02-.12,2.11-.68,3.18-1.08,1.94-3.16,3.12-5.6,3.12Z"/><path class="cls-3" d="m363.63,75.26s10.58,4.16,15.53-2.03c4.95-6.19,11.93-17.66,12.49-20.59,0,0-22.05,16.65-21.38,13.39.68-3.26,2.81-9.34,2.81-9.34,0,0-17.62,5.48-15.34,12.28.86,2.56,5.89,6.29,5.89,6.29Z"/><path class="cls-2" d="m347.68,59.06c-1.06-.42-9.32-4.08-2.17-14.93t.01-.02c.08-.15,1.74-3.25,2.22-4.15.05-.09.17-.07.2.02.27,1.01,1.37,4.59,3.25,4.59,2.06,0,4.31.27,5.58-7.3.08-.5.74-.64,1.01-.21,1.21,1.89,3.72,4.48,6.57-.2,3.36-5.51,3.16-21.69,5.1-27.34.21-.62,1.14-.42,1.08.24-.28,2.81-.28,7.9,2.38,12.5,0,0,2.06,3.75-.63,9.5-.08.17-.07.37.03.52.57.9,2.63,3.45,4.43-3.68.02-.08.02-.18.01-.26-.11-.52-.53-2.5-.89-4.16-.13-.59.65-.93,1-.43,1.31,1.9,2.89,4.66,2.19,6.16-1.13,2.42-1.96,6.19-7.07,14.47l-.06.12c-.18.65-1.52,5.99,3.95,4.78l3.33-.98s-2.57,4.69-9.99,6.66c-7.15,1.9-9.94,3.23-10.6,5.36-.05.15-.02.3.06.43.49.82,2.11,3.86-2.17,2.68-2.08-.58-3.17-.65-3.74-.55-.63.12-1.28-.08-1.73-.53l-3.15-3.15c-.06-.07-.13-.11-.2-.14Z"/><path class="cls-4" d="m360.14,69.16s4.1,4.37,6.4,4.15c2.31-.22,13.07-7.26,15.63-9.87,0,0-8.88,4.85-12.17,4.83,0,0-5.33-2.67-3.82-5.26,1.51-2.59,4.54-4.39,4.54-4.39,0,0-1.43-.39-6.06,3.47-.2.17-.38.37-.51.59l-4.01,6.48Z"/><path class="cls-6" d="m328.39,45.97l8.34-4.77s14.22,8.16,15.8,10.73c0,0,4.14,4.73.89,11.15,0,0-6.12,3.16-10.46.1-4.34-3.07-14.57-17.21-14.57-17.21Z"/><path class="cls-8" d="m353.48,84.79s13.05-4.42,12.94-6.79l-.13-2.79c.57-9.45-8.73-10.42-12.87-.64l-3.69,5.1,3.75,5.12Z"/></g></g></svg>